<svg width="1097" height="402" viewBox="0 0 1097 402" fill="none" xmlns="http://www.w3.org/2000/svg">
<path fill-rule="evenodd" clip-rule="evenodd" d="M1095.24 301.358C1095.24 300.718 1095.07 300.091 1094.75 299.538C1094.43 298.986 1093.97 298.528 1093.41 298.212C1092.85 297.896 1092.22 297.732 1091.58 297.738C1090.95 297.743 1090.32 297.918 1089.77 298.243C1067.56 311.933 1033.37 316.759 1006.43 316.759C934.9 316.759 885.068 277.127 885.068 205.631C885.068 134.135 935.448 88.5469 1006.84 88.4785H1007.11C1041.82 90.7031 1060.37 94.5363 1090.38 105.591C1090.93 105.796 1091.53 105.864 1092.11 105.79C1092.69 105.716 1093.25 105.501 1093.73 105.164C1094.21 104.828 1094.6 104.379 1094.87 103.857C1095.14 103.335 1095.28 102.756 1095.28 102.168L1096.1 28.7901C1096.1 28.1352 1095.92 27.4922 1095.59 26.9269C1095.26 26.3616 1094.79 25.8943 1094.22 25.5729C1062.79 8.9264 1027.68 0.463468 992.124 0.965167C891.742 0.965167 819.938 60.9958 799.13 154.67C799.014 155.19 799.014 155.73 799.13 156.251C799.247 156.771 799.476 157.26 799.803 157.681C800.13 158.103 800.546 158.447 801.021 158.69C801.496 158.932 802.019 159.067 802.552 159.085H861.453C862.194 159.081 862.917 159.305 863.527 159.725C864.137 160.145 864.604 160.742 864.864 161.435C865.125 162.128 865.168 162.884 864.986 163.602C864.805 164.32 864.408 164.965 863.849 165.451L799.335 223.085C798.664 223.706 797.784 224.051 796.871 224.051C795.957 224.051 795.077 223.706 794.407 223.085L731.638 163.192C731.313 162.86 730.924 162.598 730.494 162.421C730.065 162.245 729.604 162.158 729.139 162.165H680.164C679.201 162.165 678.279 161.783 677.598 161.102C676.918 160.422 676.536 159.499 676.536 158.537V72.427C676.536 71.4616 676.917 70.5353 677.596 69.8495C678.275 69.1637 679.198 68.7739 680.164 68.7649H814.394C814.873 68.7694 815.349 68.6789 815.793 68.4986C816.237 68.3183 816.641 68.0518 816.981 67.7145C817.322 67.3772 817.592 66.9757 817.777 66.5333C817.961 66.0909 818.056 65.6163 818.056 65.137V4.59302C818.056 4.11371 817.961 3.63915 817.777 3.19676C817.592 2.75436 817.322 2.35289 816.981 2.01556C816.641 1.67823 816.237 1.41173 815.793 1.23144C815.349 1.05115 814.873 0.960645 814.394 0.965167H595.867C595.391 0.965167 594.919 1.05901 594.479 1.24132C594.039 1.42364 593.639 1.69086 593.302 2.02774C592.965 2.36462 592.698 2.76456 592.516 3.20471C592.333 3.64486 592.239 4.11661 592.239 4.59302V302.35C592.24 303.199 591.944 304.02 591.402 304.673C590.86 305.325 590.107 305.767 589.273 305.922C588.439 306.076 587.577 305.934 586.837 305.519C586.098 305.104 585.526 304.443 585.223 303.651L469.303 3.29247C469.038 2.60187 468.568 2.00884 467.956 1.59288C467.345 1.17691 466.621 0.957885 465.881 0.965167H374.397C373.664 0.964589 372.946 1.18234 372.337 1.5907C371.728 1.99905 371.253 2.57953 370.975 3.25825L270.045 261.452C271.346 265.764 268.231 256.968 270.045 261.452C253.412 238.487 228.394 220.382 126.027 159.427C60.999 120.513 83.3822 45.5603 244.719 97.8219C245.262 97.9997 245.839 98.0469 246.403 97.9596C246.968 97.8722 247.503 97.6529 247.967 97.3193C248.431 96.9858 248.809 96.5475 249.071 96.0401C249.333 95.5327 249.472 94.9705 249.476 94.3994V26.2232C249.468 25.4683 249.227 24.7343 248.786 24.1216C248.345 23.509 247.725 23.0476 247.012 22.8007C119.421 -21.2126 68.6312 8.83691 29.7174 50.6599C-9.19642 92.4828 1.13953 155.251 5.7599 165.382C17.8071 192.488 43.0994 209.498 83.5191 231.299C98.2701 239.24 114.63 248.07 132.187 258.679C197.215 298.141 193.142 366.249 7.09469 299.27C6.54606 299.072 5.95774 299.009 5.37963 299.087C4.80151 299.165 4.25065 299.38 3.77374 299.716C3.29682 300.052 2.90792 300.498 2.64001 301.016C2.3721 301.534 2.23308 302.109 2.23473 302.693V377.166C2.21993 377.903 2.43198 378.627 2.84215 379.239C3.25233 379.851 3.8408 380.322 4.52782 380.589C42.9283 396.059 133.556 416.149 214.395 382.95C215.045 382.683 215.758 382.611 216.448 382.741C217.138 382.872 217.775 383.2 218.283 383.685C218.79 384.171 219.145 384.793 219.306 385.477C219.467 386.16 219.425 386.876 219.187 387.536L215.764 396.709C215.566 397.257 215.503 397.846 215.581 398.424C215.659 399.002 215.875 399.553 216.211 400.03C216.546 400.507 216.992 400.896 217.51 401.164C218.029 401.431 218.604 401.57 219.187 401.569H317.823C318.628 401.542 319.401 401.249 320.021 400.734C320.641 400.22 321.072 399.514 321.246 398.728L341.541 309.504C341.716 308.717 342.147 308.011 342.766 307.497C343.386 306.983 344.159 306.689 344.964 306.663H486.792C487.58 306.676 488.342 306.948 488.961 307.436C489.579 307.925 490.02 308.603 490.215 309.367L514.172 398.865C514.367 399.629 514.808 400.307 515.426 400.796C516.045 401.284 516.807 401.556 517.595 401.569H826.03C826.51 401.573 826.985 401.483 827.429 401.302C827.873 401.122 828.277 400.856 828.618 400.518C828.958 400.181 829.229 399.78 829.413 399.337C829.598 398.895 829.693 398.42 829.693 397.941V325.315C829.693 324.836 829.598 324.362 829.413 323.919C829.229 323.477 828.958 323.075 828.618 322.738C828.277 322.401 827.873 322.134 827.429 321.954C826.985 321.774 826.51 321.683 826.03 321.688H683.175C682.216 321.679 681.298 321.294 680.62 320.615C679.941 319.937 679.556 319.019 679.547 318.06V238.007C679.547 237.045 679.93 236.123 680.61 235.442C681.29 234.762 682.213 234.38 683.175 234.38H793.517C794.341 234.413 795.129 234.726 795.751 235.268C796.373 235.809 796.792 236.546 796.939 237.357C814.873 335.138 888.491 401.637 991.645 401.637C1015.19 401.637 1068.51 397.633 1093.43 381.684C1093.96 381.37 1094.4 380.917 1094.69 380.375C1094.99 379.833 1095.13 379.221 1095.11 378.604L1095.24 301.358ZM373.952 226.679L414.133 92.8251C414.382 92.1163 414.845 91.5023 415.458 91.068C416.071 90.6337 416.804 90.4004 417.555 90.4004C418.306 90.4004 419.039 90.6337 419.652 91.068C420.265 91.5023 420.728 92.1163 420.978 92.8251L458.454 226.679C458.606 227.213 458.633 227.776 458.534 228.322C458.434 228.869 458.211 229.385 457.88 229.832C457.549 230.278 457.12 230.643 456.627 230.897C456.133 231.152 455.587 231.289 455.031 231.299H377.375C376.822 231.283 376.28 231.141 375.789 230.884C375.299 230.628 374.873 230.263 374.544 229.819C374.214 229.374 373.99 228.861 373.888 228.317C373.785 227.773 373.807 227.213 373.952 226.679V226.679Z" fill="#fff"/>
</svg>
