<svg width="510" height="255" viewBox="0 0 510 255" fill="none" xmlns="http://www.w3.org/2000/svg">
<path fill-rule="evenodd" clip-rule="evenodd" d="M458.681 164.794C458.681 164.555 458.617 164.322 458.497 164.116C458.377 163.91 458.205 163.739 457.998 163.622C457.791 163.504 457.556 163.443 457.318 163.445C457.08 163.447 456.846 163.512 456.641 163.633C448.366 168.733 435.629 170.531 425.595 170.531C398.947 170.531 380.383 155.767 380.383 129.132C380.383 102.497 399.151 85.5143 425.748 85.4888H425.85C438.778 86.3175 445.689 87.7455 456.871 91.8638C457.076 91.9401 457.296 91.9656 457.513 91.9379C457.73 91.9102 457.938 91.8302 458.117 91.7048C458.296 91.5794 458.443 91.4123 458.543 91.2179C458.644 91.0235 458.695 90.8076 458.694 90.5887L459 63.2528C459 63.0088 458.935 62.7692 458.811 62.5586C458.688 62.3481 458.511 62.174 458.299 62.0542C446.592 55.8528 433.512 52.7001 420.265 52.887C382.87 52.887 356.12 75.2505 348.368 110.147C348.325 110.341 348.325 110.542 348.368 110.736C348.412 110.93 348.497 111.112 348.619 111.269C348.741 111.426 348.896 111.555 349.073 111.645C349.25 111.735 349.445 111.786 349.643 111.792H371.586C371.862 111.791 372.131 111.874 372.359 112.031C372.586 112.187 372.76 112.409 372.857 112.667C372.954 112.926 372.97 113.207 372.902 113.475C372.834 113.742 372.687 113.983 372.478 114.163L348.445 135.634C348.195 135.866 347.867 135.994 347.527 135.994C347.186 135.994 346.859 135.866 346.609 135.634L323.225 113.322C323.104 113.198 322.959 113.101 322.799 113.035C322.639 112.969 322.467 112.937 322.294 112.939H304.049C303.691 112.939 303.347 112.797 303.094 112.544C302.84 112.29 302.698 111.946 302.698 111.588V79.509C302.698 79.1494 302.84 78.8043 303.093 78.5488C303.346 78.2933 303.69 78.1481 304.049 78.1447H354.055C354.233 78.1464 354.41 78.1127 354.576 78.0456C354.741 77.9784 354.892 77.8791 355.019 77.7534C355.145 77.6278 355.246 77.4782 355.315 77.3134C355.384 77.1486 355.419 76.9718 355.419 76.7932V54.2385C355.419 54.0599 355.384 53.8832 355.315 53.7183C355.246 53.5535 355.145 53.404 355.019 53.2783C354.892 53.1526 354.741 53.0534 354.576 52.9862C354.41 52.919 354.233 52.8853 354.055 52.887H272.646C272.468 52.887 272.293 52.922 272.129 52.9899C271.965 53.0578 271.816 53.1573 271.69 53.2828C271.565 53.4083 271.465 53.5573 271.397 53.7213C271.329 53.8853 271.294 54.061 271.294 54.2385V165.163C271.295 165.479 271.184 165.786 270.983 166.029C270.781 166.272 270.5 166.436 270.189 166.494C269.879 166.551 269.558 166.498 269.282 166.344C269.006 166.189 268.794 165.943 268.681 165.648L225.496 53.754C225.398 53.4967 225.223 53.2758 224.995 53.1208C224.767 52.9659 224.497 52.8843 224.221 52.887H190.141C189.867 52.8868 189.6 52.9679 189.373 53.12C189.146 53.2722 188.969 53.4884 188.866 53.7413L151.266 149.927C150.59 148.257 151.75 151.534 151.266 149.927C145.069 141.372 135.749 134.627 97.614 111.919C73.389 97.4227 81.7275 69.5002 141.831 88.9695C142.033 89.0357 142.248 89.0533 142.458 89.0208C142.669 88.9882 142.868 88.9065 143.041 88.7823C143.214 88.658 143.355 88.4947 143.452 88.3057C143.55 88.1167 143.602 87.9073 143.603 87.6945V62.2965C143.6 62.0153 143.511 61.7418 143.346 61.5136C143.182 61.2854 142.951 61.1135 142.685 61.0215C95.1532 44.625 76.2322 55.8195 61.7355 71.4C47.2387 86.9805 51.0892 110.364 52.8105 114.138C57.2985 124.236 66.7207 130.573 81.7785 138.694C87.2737 141.652 93.3682 144.942 99.909 148.895C124.134 163.595 122.617 188.968 53.3077 164.016C53.1034 163.942 52.8842 163.919 52.6688 163.948C52.4535 163.977 52.2482 164.057 52.0706 164.182C51.8929 164.307 51.748 164.473 51.6482 164.666C51.5484 164.859 51.4966 165.074 51.4972 165.291V193.035C51.4917 193.309 51.5707 193.579 51.7235 193.807C51.8763 194.035 52.0956 194.211 52.3515 194.31C66.657 200.073 100.419 207.557 130.534 195.19C130.776 195.09 131.042 195.063 131.299 195.112C131.556 195.16 131.794 195.283 131.983 195.463C132.172 195.644 132.304 195.876 132.364 196.131C132.424 196.386 132.408 196.652 132.319 196.898L131.044 200.315C130.971 200.52 130.947 200.739 130.976 200.954C131.005 201.17 131.086 201.375 131.211 201.552C131.336 201.73 131.502 201.875 131.695 201.975C131.888 202.075 132.102 202.126 132.319 202.126H169.065C169.365 202.116 169.653 202.007 169.884 201.815C170.115 201.623 170.275 201.36 170.34 201.067L177.901 167.828C177.966 167.535 178.126 167.272 178.357 167.081C178.588 166.889 178.876 166.78 179.176 166.77H232.012C232.305 166.775 232.589 166.876 232.82 167.058C233.05 167.24 233.214 167.493 233.287 167.777L242.212 201.118C242.284 201.403 242.449 201.656 242.679 201.838C242.909 202.02 243.193 202.121 243.487 202.126H358.39C358.568 202.127 358.745 202.094 358.911 202.027C359.076 201.959 359.227 201.86 359.354 201.734C359.48 201.609 359.581 201.459 359.65 201.294C359.719 201.13 359.754 200.953 359.754 200.774V173.719C359.754 173.54 359.719 173.363 359.65 173.199C359.581 173.034 359.48 172.884 359.354 172.759C359.227 172.633 359.076 172.534 358.911 172.466C358.745 172.399 358.568 172.366 358.39 172.367H305.171C304.814 172.364 304.472 172.22 304.219 171.968C303.967 171.715 303.823 171.373 303.82 171.016V141.193C303.82 140.835 303.962 140.491 304.216 140.238C304.469 139.984 304.813 139.842 305.171 139.842H346.277C346.584 139.854 346.878 139.971 347.109 140.173C347.341 140.374 347.497 140.649 347.552 140.951C354.233 177.378 381.658 202.151 420.087 202.151C428.859 202.151 448.723 200.66 458.005 194.718C458.203 194.601 458.366 194.432 458.476 194.23C458.586 194.028 458.639 193.8 458.63 193.57L458.681 164.794ZM189.975 136.973L204.943 87.108C205.036 86.844 205.209 86.6152 205.437 86.4534C205.666 86.2916 205.939 86.2047 206.218 86.2047C206.498 86.2047 206.771 86.2916 207 86.4534C207.228 86.6152 207.401 86.844 207.493 87.108L221.455 136.973C221.511 137.172 221.522 137.382 221.485 137.585C221.447 137.789 221.364 137.981 221.241 138.148C221.118 138.314 220.958 138.45 220.774 138.545C220.59 138.639 220.387 138.691 220.18 138.694H191.25C191.044 138.688 190.842 138.635 190.659 138.54C190.477 138.444 190.318 138.309 190.195 138.143C190.073 137.977 189.989 137.786 189.951 137.583C189.913 137.381 189.921 137.172 189.975 136.973Z" fill="#3F00F2"/>
</svg>
