<svg id="Camada_1" data-name="Camada 1" xmlns="http://www.w3.org/2000/svg" viewBox="0 0 1001.89 452.55"><defs><style>.cls-1{fill:#e1d73b;}.cls-2{fill:#fff;}</style></defs><title>logo</title><path class="cls-1" d="M514.89,43.83a5.82,5.82,0,1,0,0-2.25H503.71l-.47-.47-10-10-.33-.33H443.48l-.32.33-10.06,10H410.56l-.33.34-9.33,9.32H381.66a5.82,5.82,0,1,0,0,2.26h17l-5.45,5.46a5.82,5.82,0,1,0,2.58,4.83,5.74,5.74,0,0,0-1-3.24l7.06-7,.66-.66,9-9H434l.33-.33L444.43,33H492l9.69,9.69L478.47,65.88H472.6l-.47-.47L460,53.28l-.32-.33h-9.5l5.58-5.58a5.77,5.77,0,1,0-1.6-1.59L447,53H434a5.82,5.82,0,1,0,0,2.25h24.75L470.53,67,455.38,82.15H441.11a5.82,5.82,0,1,0,0,2.26h13.61V91A5.82,5.82,0,1,0,457,91V83.75L472.6,68.13h6.81l.33-.33,24-24Zm5.7-4.81a3.69,3.69,0,1,1-3.68,3.69A3.69,3.69,0,0,1,520.59,39ZM376,55.63a3.69,3.69,0,1,1,3.68-3.69A3.69,3.69,0,0,1,376,55.63Zm14,11.42a3.69,3.69,0,1,1,3.68-3.69A3.69,3.69,0,0,1,390,67.05Zm69-28.2a3.69,3.69,0,1,1-2.55,6.35l-.06-.06-.06-.06A3.69,3.69,0,0,1,459,38.85ZM428.25,57.76a3.69,3.69,0,1,1,3.69-3.68A3.68,3.68,0,0,1,428.25,57.76ZM435.4,87a3.69,3.69,0,1,1,3.68-3.69A3.69,3.69,0,0,1,435.4,87Zm24.14,9.76a3.69,3.69,0,1,1-3.69-3.68A3.69,3.69,0,0,1,459.54,96.73Z"/><path class="cls-1" d="M371.35,266.8l-8.1,8.09-.33.33V295h11.27l7.72,7.73.33.32h6l8.1,8.09-5.16,5.17-.8.8.8.8L404.34,331l.33.33H416.8l10.54,10.54,2.07,1.13h10.43l16.82,16.82.33.33h15.88l4.16,4.17.34.33h8.9v7.71l.34.33,9.68,9.68.33.34h14.74v11.68l.32.32,7.32,7.32v42.36h22V434.7l12.89-12.89.33-.33V402.92l27.33,27.33.8.33h16.06l14.66,14.67.8.33h46.19l.33-.33L682.65,423l.33-.33V396.53l-.33-.8L656.9,370l4.64-4.64v8.56h10.57l11.21,11.21,1.6,1.6,7.06,7.06.33.34h18l.79-.34,14.39-14.38.33-.33v-7.77l17.82-17.82.32-.33v-24l.47-.47,23.09-23.09.33-.33V282.68l-.33-.8-8.21-8.21h0l-.47-.45V198.3l-.56-.33-4.11-2.37-.41-.23V169.58l-.32-.32-6.06-6.06-.47-.47V135.56l-.33-.33L735.16,123.8V113.52l-.33-.33L720.27,98.62l-.34-.33h-7.29V85.1l-.33-.8-22.4-22.4-.34-.33h-11V56.94l-.33-.8L654.4,32.27l-.33-.33H613.8L598.52,16.66l-.33-.33H574.91l-.33.33L562.74,28.51,541.54,7.3,541.21,7h-51l-.33.33L481.21,16H439l-.33.33-9.8,9.8H398.21l-.33.56-2.1,3.65-.24.41h-40l-.33.33-26.8,26.8-.47.47H312.36l-.33.33L289.16,81.52h-6l-.78.32-20.84,20.25h-.67V114.5L234.39,141l-.33.33v29l.33.33,5.75,5.75.47.47v28.46l.33.33,18.24,18.24v3.46l.33.33,7.09,7.09.33.33h17.85L296,246.25l.33.34h13.95l14.12,14.11.33.33h40.88M737.72,138a3.69,3.69,0,1,1-3.69-3.68A3.69,3.69,0,0,1,737.72,138ZM236.31,169.34v-27.1l26.48-26.47.33-.33v-11.1h20.69v14l-22.74,22.74-.8.8-6.64,6.64-.33.32v5.82a5.83,5.83,0,1,0,2.25,0v-4.87l6.32-6.31,6.63,6.63v16.22l.33.33L275.1,173l-11.31,11.32H251.25l-8.39-8.39-1.12-1.13Zm18.22-12.63a3.7,3.7,0,1,1-.19,0Zm133.06,144h-4.41L375.45,293l-.33-.33h-9.94V276.16l7.76-7.76,10.69,10.68a5.81,5.81,0,0,0,4,8.52ZM385,281.89a3.69,3.69,0,1,1,3.68,3.69A3.69,3.69,0,0,1,385,281.89Zm154.84,121a3.69,3.69,0,1,1,3.69-3.68A3.69,3.69,0,0,1,539.88,402.91ZM552,397.47v23.07l-11,11V404.93a5.82,5.82,0,1,0-2.26,0v4.8l-6.06-6.06v-8.36a5.82,5.82,0,1,0-2.25,0v9.3l.33.33,8,8v29.24H521.26v-41l-.33-.33-7.32-7.32V382.08l2.17-2.17a5.75,5.75,0,0,0,3.23,1,5.81,5.81,0,1,0-4.83-2.58L512,380.48H497.55l-9-9V364l10.8-10.8h7.49l.47.47,4.62,4.62a5.81,5.81,0,1,0,1.6-1.6l-4.63-4.62,8.89-8.89,4.72,4.73v10.46l.33.33L552,387.87Zm-20.4-4.19a3.69,3.69,0,1,1,3.68-3.68A3.69,3.69,0,0,1,531.57,393.28Zm-16.24-18.21a3.69,3.69,0,1,1,3.68,3.69A3.68,3.68,0,0,1,515.33,375.07Zm-2.27-13.52a3.68,3.68,0,0,1,1-2.55l.07-.06.06-.06a3.69,3.69,0,1,1-1.14,2.67ZM552,384.68l-27.23-27.23v-7.27l2,2a5.81,5.81,0,1,0,1.6-1.6L524.74,347l-.41-.42-5-5L525,336l6.51,6.51.33.33h8.29v23.44l.33.33L552,378.14Zm-24.1-29.29a3.67,3.67,0,0,1,1-2.54l.07-.07.06-.06a3.69,3.69,0,1,1-1.14,2.67ZM680.73,397v24.74l-21.59,21.58H614.35l-14.67-14.66-.8-.33h-16l-28.6-28.6V380.4l21.54,21.54v7.55l.33.33,4,4a5.77,5.77,0,1,0,1.59-1.6l-3.7-3.71V402.6h9.34l7.64,7.64a5.82,5.82,0,1,0,4.84-2.58,5.72,5.72,0,0,0-3.24,1l-8-8-.33-.33H577.37l-23.14-23.14-.66-.66-11.2-11.2V344.41l46.84,46.85.66.66,26.84,26.84-2.89,2.9a5.87,5.87,0,1,0,1.59,1.6l2.9-2.9,7.9,7.89a5.83,5.83,0,1,0,1.59-1.59l-7.89-7.9-1.6-1.59-25.24-25.25h17.19l35.37,35.37a5.82,5.82,0,1,0,4.84-2.58,5.74,5.74,0,0,0-3.24,1L611.53,390l-.33-.33H590.81L544,342.84h12.34l32.91,32.91a5.87,5.87,0,1,0,1.6-1.59l-31.32-31.32h18.22L644.91,410a5.77,5.77,0,1,0,1.59-1.6l-65.58-65.58h14.13l64.57,64.57a5.81,5.81,0,1,0,1.6-1.6l-47.05-47.05h13l35.65,35.65a5.81,5.81,0,1,0,1.6-1.6l-34-34.05h12.14L653.71,370l.8.8Zm-99.44,20.1a3.64,3.64,0,0,1,1-2.55l.06-.06.06-.06a3.69,3.69,0,1,1-1.14,2.67Zm14.87-3.62a3.66,3.66,0,0,1,1-2.54l.06-.07.06-.06a3.69,3.69,0,1,1-1.14,2.67Zm18.1,13a3.69,3.69,0,1,1-1.09-2.62l0,0A3.65,3.65,0,0,1,614.26,426.5Zm13.1,5a3.67,3.67,0,0,1,1-2.54l.07-.06.06-.07a3.69,3.69,0,1,1-1.14,2.67Zm19.42-1a3.68,3.68,0,0,1,1-2.54l.06-.07.07-.06a3.65,3.65,0,0,1,2.54-1,3.69,3.69,0,1,1-3.69,3.68ZM590.38,379a3.68,3.68,0,0,1,1-2.54l.06-.06.07-.07a3.69,3.69,0,1,1-1.15,2.67Zm55.68,34.27a3.68,3.68,0,0,1,1-2.55l.07-.06.06-.06a3.69,3.69,0,1,1-1.14,2.67Zm14.71-2.61a3.7,3.7,0,0,1,1-2.55l.06-.06.06-.06a3.69,3.69,0,1,1-1.14,2.67Zm3.18-13a3.66,3.66,0,0,1,1-2.54L665,395l.07-.06a3.69,3.69,0,1,1-1.15,2.67Zm101.62-93.3-22.75,22.76-.8.8-.33.33-10.53,10.53H715.21a5.82,5.82,0,1,0,0,2.26H728.9l-6.83,6.83H701.6l-.32.33-4.41,4.41a5.83,5.83,0,1,0,1.59,1.59l4.09-4.08H723l.33-.33L732.1,341l.66-.67,8.93-8.93V352.2L724.2,369.69h-5.06a5.83,5.83,0,1,0,0,2.25h4.4v6.18l-13.72,13.73H693.25l-6.74-6.74,9.78-9.78a5.82,5.82,0,1,0-3.21-5.21,5.76,5.76,0,0,0,1.42,3.81l-9.58,9.59L673.38,372l-.33-.33h-9.26V338.48H685l.33-.33,15.63-15.63.33-.33V282.47l-.33-.32L681.78,263V246l24.31-24.31.33-.34V203.48l19.82-19.82.8-.8.32-.33V167.35a5.82,5.82,0,1,0-2.24,0v12l-9.11-9.1a5.82,5.82,0,1,0-4.83,2.58,5.89,5.89,0,0,0,3.24-1l10.22,10.22-20.15,20.15-.33.33v17.88l-24.31,24.31-.33.33V263l-16.79,16.79H620.32L594,253.4v-16l39-39.05.33-.33V178.78l7.51-7.52v11.91a5.83,5.83,0,1,0,2.25,0V169l10.39-10.39.66-.66v-8.65L666.41,137h9.74l13.15,13.15v29l-17.46,17.46-.66.66L660,208.52l-.33.33v12.4l-16.22,16.21H631.7a5.82,5.82,0,1,0,0,2.26h11.08v13.36a5.82,5.82,0,1,0,2.25,0V239.72h0v-.66l16.54-16.54.33-.33v-12.4l9.28-9.28v11.58a5.81,5.81,0,1,0,2.26-.24V198.26l17.79-17.8.33-.33V149.26l-.33-.33-13.82-13.82-.33-.33H665.47l-.33.33L652.21,148l-.33.33v8H639.79l-8-8,7.55-7.55a5.82,5.82,0,1,0-2.58-4.83,5.71,5.71,0,0,0,1,3.23l-7.56,7.56-5.12-5.12a5.77,5.77,0,1,0-1.59,1.6l5.11,5.11,1.6,1.6,8.34,8.34.33.33h11.44l-8.79,8.79-.66.66-9.44,9.44-.33.33v19.25L592.35,235.8h-9.11l-12.17-12.16,19-19,.33-.33V184.69l14.27-14.28,5.55,5.55a5.87,5.87,0,1,0,1.6-1.59l-5.55-5.55-.47-.47V128.86l.47-.47,7.09-7.09a5.82,5.82,0,1,0-2.58-4.84,5.72,5.72,0,0,0,1,3.24l-7.1,7.1-10.43-10.44a5.81,5.81,0,1,0-1.6,1.6l10.9,10.9v39.49l-.47.47-14.27,14.27H577.53l-.33.33L570.64,190a5.81,5.81,0,1,0,1.6,1.6l6.23-6.24h9.68v18L569.48,222l-.8.8-.8.8-7.54,7.54-.33.33v16.34a5.82,5.82,0,1,0,2.26,0v-15.4l7.21-7.21L582,237.73l.33.33h9.39v16.28l.33.33,26.7,26.7v22.74l-.46.47-9.52,9.51a5.77,5.77,0,1,0,1.6,1.59l9.51-9.51,4.71,4.71a5.81,5.81,0,1,0,1.6-1.6L621,304.11V282h11.5l7.74,7.75a5.81,5.81,0,1,0,1.6-1.6L635.67,282h27.06l10.21,10.22a5.81,5.81,0,1,0,1.6-1.6l-9.75-9.75,15.86-15.85L699,283.42v37.83l-15,15H663.15l-10.28-11V314.58a5.82,5.82,0,1,0-2.26,0v10H640.54a5.82,5.82,0,1,0,0,2.26h10.72l10.28,11v24.36l-6.24,6.23-11.54-11.55-.33-.33H611.91l-13.67-13.66h6.08l.33-.33,5.5-5.5,7.67,7.67a5.81,5.81,0,1,0,1.6-1.6l-7.67-7.67,4.93-4.93a5.76,5.76,0,0,0,2.77.71,5.81,5.81,0,1,0-4.52-2.15l-4.78,4.78-1.6,1.59-5.16,5.17h-61v0h-2.26v0h-7.36l-6.18-6.18-.8-.8-.79-.8-1.71-1.7v-5.6h8.2l.33-.33,7.34-7.34h11.09l.33-.33,7-7h11.2a5.82,5.82,0,1,0,0-2.26h-8.94l11.64-11.65h17.59a5.82,5.82,0,1,0,0-2.26H572.17v-21.6a5.82,5.82,0,1,0-2.26,0V295L556.66,308.2l-.66.66-6.71,6.71H538.2l-.33.33-7.34,7.34h-7.26v-2.46a5.82,5.82,0,1,0-2.25,0v2.46h0v2.26h0V332l.33.33,2,2L517.77,340l-1.6,1.6L506.82,351H498.4l-.33.33-11.13,11.13H478.3l-4.17-4.17-.33-.33H457.93L441.1,341.1l-.33-.33h-9.11l14.8-14.8h43.66l7,7a5.74,5.74,0,0,0-1,3.24,5.82,5.82,0,1,0,5.82-5.82,5.74,5.74,0,0,0-3.24,1l-6.51-6.51,11-11a5.87,5.87,0,1,0-1.59-1.6l-11,11-.48.47H446.46l-5.29-5.29a5.81,5.81,0,1,0-1.6,1.6l4.82,4.82L428.94,340.3l-10.88-10.87-.79-.33H405.6l-12-12,4.84-4.84h8.85l2.07,2.07a5.87,5.87,0,1,0,1.6-1.59l-2.41-2.41-.33-.32h-9.78l-8.57-8.57V287.6a5.82,5.82,0,0,0,0-11.42v-5.27l3.91-3.91a5.77,5.77,0,1,0-1.6-1.59l-3.44,3.43-6.33-6.33V244.45L408,218.81v38.6l.33.33,24.56,24.56v8.05l-6.15,6.16a5.83,5.83,0,1,0,1.59,1.59l6.49-6.48.33-.33V283h24.41l5.65,5.64a5.82,5.82,0,1,0,4.83-2.58,5.71,5.71,0,0,0-3.23,1l-5.18-5.18,14.44-14.44h25.3l.34-.33,10.35-10.36,20.52,20.51v9.1a5.82,5.82,0,1,0,2.25,0v-8.44h4.87a5.82,5.82,0,1,0,0-2.25h-5.53l-21-21V235.88l.47-.46-.47-.47V211.06l-.33-.33-4-4a5.81,5.81,0,1,0-1.6,1.6L511,212v20.7l-13.35-13.34a5.82,5.82,0,1,0-4.83,2.58,5.74,5.74,0,0,0,3.24-1L511,235.88v18.76l-.47.46-10,10H476.09l-25.66-25.65V227.76l-.33-.33-8.21-8.21a5.83,5.83,0,1,0-1.59,1.59l7.88,7.88v10.13H430.87a5.82,5.82,0,1,0,0,2.25h18L474,266.26l-14,14-.47.47H434.51l-24.24-24.23V216.56L435,191.81h28.42l.67-.66,21.23-20.93H513.2l-41.27,41.26-.33.33v10a5.82,5.82,0,1,0,2.26,0v-9.05l42.53-42.53h23.86l.32-.33,14-14v25.5l-17.23,17.22a5.81,5.81,0,1,0,1.6,1.6l6.53-6.54v12.39L533.7,217.84a5.82,5.82,0,1,0,2.58,4.84,5.74,5.74,0,0,0-1-3.24l12.1-12.09.33-.33V191.44l8.76-8.77.34-.33v-76.5l18.33-18.33h5.34l-16,16-.33.33v56.42a5.82,5.82,0,1,0,2.25,0V104.8l17.3-17.29h8.53l.34-.33,22.56-22.57a5.77,5.77,0,1,0-1.6-1.59L591.28,85.25H574.22l-.33.33-19,19-.33.33v47.8L539.3,168H485.35l-25.16-25.16V128a5.82,5.82,0,1,0-2.25,0v14.11H443a5.82,5.82,0,1,0,0,2.26H458.6l24.68,24.68-20.76,20.46H445.79l-7.31-7.31-.65-.66-12.27-12.26V153.13l-.33-.33L405.5,133.06l18.74-18.75.33-.33V102.59a5.82,5.82,0,1,0-2.25,0V113l-18.89,18.89h-22.1a5.82,5.82,0,1,0,0,2.26h22.1l.47.46,19.41,19.41v13l-9.31-9.3a5.77,5.77,0,1,0-1.59,1.6l10.9,10.9.66.66,10.66,10.66H425.4l-.33.33-33.33,33.33a5.77,5.77,0,1,0,1.6,1.59l33-33h10.56l5.71,5.71h-8.51l-.33.33L408.67,215H408v.66l-26.76,26.76-31.84-31.83-.32-.33h-6.49a5.83,5.83,0,1,0,0,2.25h5.54L379.66,244l.47.47v19l.33.33,7.13,7.14v5.27a5.76,5.76,0,0,0-2.5,1.16L374.54,266.8l-.8-.8-.8-.8-6.09-6.09-12-12,0,0a5.69,5.69,0,0,0,1-3.24,5.82,5.82,0,1,0-2.57,4.83l0,0,10,10H325.63l-14.12-14.12-.33-.33H297.24l-10.86-10.86V217.11l9.62-9.62,4.57,4.57a5.81,5.81,0,1,0,1.6-1.6l-4.57-4.57-1.6-1.6-7.54-7.54a5.77,5.77,0,1,0-1.59,1.6l7.54,7.54-10,10-.33.33v16.64H267.86l-6.42-6.42V207.8l-.33-.33-5.9-5.9a5.82,5.82,0,1,0-4.84,2.58,5.72,5.72,0,0,0,3.24-1l5.57,5.58v11.93l-16.32-16.32V179.08L250,186.2l.33.33h13.48l.47.47,7.43,7.44v8.21a5.82,5.82,0,1,0,2.26,0V193.5l-.33-.33-7.77-7.77,10.85-10.84,21.66,21.66.33.33h5.13l18.61,18.61v7.63a5.82,5.82,0,1,0,2.25,0v-5.37l8.88,8.87v8.62a5.82,5.82,0,1,0,2.25,0v-8h6.65a5.82,5.82,0,1,0,0-2.26h-7.31l-10.47-10.47-.66-.66-17-17h12.92l.32-.33L337.45,179l5.05,5.05V192a5.82,5.82,0,1,0,2.26,0v-5.67l16.17,16.16a5.84,5.84,0,1,0,1.6-1.59l-17.77-17.77-.66-.66-5.06-5-.79-.8-.8-.8-17.72-17.72V127.06L368.1,78.69h9.09v8l-15.93,15.94-.67.66-8.78,8.78-.33.33v37.69l-.47.47.47.47v.66h.66l26.53,26.53-4.05,4a5.83,5.83,0,1,0,1.59,1.59l4.52-4.51h12a5.8,5.8,0,1,0,.06-2.26H380.73l-.47-.47-26.52-26.53V113.33l8.45-8.46h18.86a5.82,5.82,0,1,0,0-2.25h-16.6L379.12,88l.33-.33V78.69h23.92l.33-.33,8.78-8.78a5.87,5.87,0,1,0-1.59-1.6l-8.46,8.46H367.16l-.33.33-47.1,47.1v-5l-.33-.33L312.76,112l-.33-.33h-3.82a5.82,5.82,0,1,0,0,2.26h2.89l6,6v37.6H304.6V146.86l-.34-.33-4.91-4.91a5.74,5.74,0,0,0,1-3.24,5.81,5.81,0,1,0-2.58,4.84l4.58,4.57v9.66h-6.49a5.82,5.82,0,1,0,0,2.26h22.28l17.73,17.72L319,194.29H299.63L278.3,173l-.8-.8-.8-.79-5.94-6V149.21l-.33-.33-7-7,22.28-22.28.33-.33v-15H299.2l.33-.33L315.74,87.8h13.7l.33-.33,10.56-10.56h13.29l.33-.33,8.27-8.27a5.81,5.81,0,1,0-1.6-1.6l-7.94,8h-4V58.78l3.53-3.53a5.84,5.84,0,1,0-1.59-1.6l-3.86,3.87-.34.33V74.66h-7.07l-.33.33L328.5,85.55H314.8l-.33.33-16.21,16.21H264.77l18.85-18.32H306.1l.33-.33L312.87,77a5.77,5.77,0,1,0-1.6-1.59l-6.11,6.11H292.35l20.94-20.94H327.9l3.68,3.67a5.87,5.87,0,1,0,1.6-1.59L330,59.45,356.44,33h37.8l-1.44,2.48a6,6,0,0,0-1.95-.34,5.84,5.84,0,1,0,3.89,1.5l2.42-4.21.57-1h0l1.78-3.08h30.34l.33-.34,9.8-9.79h42.17l.33-.34,8.67-8.66h49.13L560,29H545.23a5.82,5.82,0,1,0,0,2.26h18l.66-.66,12-12h21.41l14.48,14.48-8,7.94L593.33,30.55l-.33-.33h-7.22a5.79,5.79,0,1,0,0,2.26h6.27L602.2,42.61,593.79,51h-28l-.33.33-9.79,9.79H515.51a5.82,5.82,0,1,0,0,2.25h19.43l-7.32,7.32H517.07l-.33.33L503.28,84.5l-.33.33v28.86l-.46.46-10,10a5.82,5.82,0,1,0,2.58,4.83,5.75,5.75,0,0,0-1-3.23l10-10,11.35,11.35.33.32H524a5.82,5.82,0,1,0,0-2.25h-7.34l-11.48-11.48V85.76L518,73h10.55l.33-.33,9.26-9.25H555v10l-6.81,6.81a5.81,5.81,0,1,0,1.6,1.6l7.13-7.14.33-.33V62.73l9.46-9.46h28l.33-.34,8.74-8.74,1.6-1.59,8.41-8.41h39.34l23.21,23.21v4.16h-12l-.33.33L644,82l-.65.65L630.52,95.39h-2.66V83.74a5.82,5.82,0,1,0-2.26,0v13.9h4.92l8.1,8.1V116a5.83,5.83,0,1,0,2.25,0V106.4h7.52a5.82,5.82,0,1,0,0-2.26h-8.18l-7.62-7.63L644.9,84.2H665l28.2,28.21v9.2a5.82,5.82,0,1,0,2.26,0v-8.54h10.07l14.19,14.19V140a5.82,5.82,0,1,0,2.26,0V126.32l-.33-.33L706.8,111.14l-.33-.32H694.8L666.27,82.28l-.33-.32h-18.8l18.14-18.14h23.36l21.74,21.74V98.29H708.1L695.71,85.9a5.81,5.81,0,1,0-1.6,1.6l12.72,12.72.33.33H719l13.91,13.91v17.8a5.82,5.82,0,1,0,2.25,0V127l9.49,9.5v24l-5.23-5.24a5.87,5.87,0,1,0-1.6,1.59l6.83,6.84.34.33.79.8,5.73,5.73v23.54l-11.32-6.54V181a5.81,5.81,0,1,0-2.26,0v7.83l.57.33,13,7.51.57.33,4.51,2.6v41.67l-22.16-22.15V208.27l.47-.47,3.1-3.1a5.77,5.77,0,1,0-1.6-1.59l-3.1,3.09-3.49-3.49a5.87,5.87,0,1,0-1.6,1.59l4,4V220l.34.33,24.08,24.08v28.79l-20.18,21h-9.68l-8.68-8.68V268.52h13.32l3,3a5.83,5.83,0,1,0,1.59-1.59l-2.5-2.51,6.58-6.57a5.81,5.81,0,1,0-1.6-1.6l-6.57,6.58-.47.47H718.05v-7.9L728.46,248a5.83,5.83,0,1,0-1.74-1.45l-8.67,8.67V238.24a5.82,5.82,0,1,0-2.25,0v28h0v2.25h0v18l.33.33,9.33,9.33.33.33h10.62l4.81,4.8a5.77,5.77,0,1,0,1.59-1.6l-4.35-4.35,19.27-20.07,7.84,7.85ZM713.19,339.9a3.69,3.69,0,1,1-3.69-3.69A3.69,3.69,0,0,1,713.19,339.9Zm-15.88,17.53a3.67,3.67,0,1,1-1.09-2.62l0,0A3.67,3.67,0,0,1,697.31,357.43Zm19.81,13.39a3.69,3.69,0,1,1-3.69-3.69A3.69,3.69,0,0,1,717.12,370.82Zm-21.91-.7a3.67,3.67,0,1,1,1.63,3.07l-.8-.8,0,0A3.69,3.69,0,0,1,695.21,370.12Zm27.34-208.48a3.69,3.69,0,1,1,3.69,3.69A3.7,3.7,0,0,1,722.55,161.64ZM714.86,167a3.69,3.69,0,1,1-3.68-3.69A3.69,3.69,0,0,1,714.86,167ZM642,185.19a3.69,3.69,0,1,1-3.69,3.69A3.69,3.69,0,0,1,642,185.19ZM673.44,214a3.68,3.68,0,1,1-1.14,0h1.14ZM643.9,255.11a3.69,3.69,0,1,1-3.68,3.68A3.69,3.69,0,0,1,643.9,255.11Zm-14.22-16.52a3.69,3.69,0,1,1-3.69-3.68A3.69,3.69,0,0,1,629.68,238.59ZM638.88,136a3.69,3.69,0,1,1,3.69,3.68A3.69,3.69,0,0,1,638.88,136Zm-15,2.43a3.69,3.69,0,1,1-3.69-3.68A3.69,3.69,0,0,1,623.92,138.4Zm-12.54,40.8a3.68,3.68,0,0,1,1-2.54l.06-.06.06-.07a3.69,3.69,0,1,1-1.14,2.67Zm1.54-62.74a3.69,3.69,0,1,1,3.69,3.69A3.69,3.69,0,0,1,612.92,116.46Zm-19.82-3.34a3.69,3.69,0,1,1-3.69-3.68A3.69,3.69,0,0,1,593.1,113.12Zm-22,81.69a3.69,3.69,0,1,1-1.1-2.62l0,0A3.65,3.65,0,0,1,571.09,194.81Zm-10,55.06a3.69,3.69,0,1,1-3.69,3.69A3.69,3.69,0,0,1,561.14,249.87Zm48.05,69.05a3.69,3.69,0,1,1-3.69-3.68,3.65,3.65,0,0,1,2.59,1.06l0,0A3.71,3.71,0,0,1,609.19,318.92Zm16.52-4.8a3.66,3.66,0,0,1,1-2.54l.06-.07.06-.06a3.69,3.69,0,1,1-1.14,2.67ZM641.37,293a3.69,3.69,0,0,1,1-2.55l.06-.06.06-.06a3.69,3.69,0,1,1-1.14,2.67Zm32.72,2.47a3.7,3.7,0,0,1,1-2.55l.06-.06.06-.06a3.69,3.69,0,1,1-1.14,2.67Zm-22.35,17.07a3.69,3.69,0,1,1,3.69-3.69A3.69,3.69,0,0,1,651.74,312.56Zm-13.22,13.12a3.69,3.69,0,1,1-3.69-3.68A3.69,3.69,0,0,1,638.52,325.68ZM619,347.92a3.66,3.66,0,0,1,1-2.54l.06-.07.06-.06a3.69,3.69,0,1,1-1.14,2.67Zm-3.21-22.55a3.68,3.68,0,1,1,1.48,2.95l-.74-.74A3.69,3.69,0,0,1,615.76,325.37Zm-93.61-6.62a3.69,3.69,0,1,1,3.68-3.68A3.69,3.69,0,0,1,522.15,318.75Zm48.68-9.42a3.69,3.69,0,1,1,3.68,3.69A3.69,3.69,0,0,1,570.83,309.33Zm.21-38.66a3.69,3.69,0,1,1,3.68-3.69A3.69,3.69,0,0,1,571,270.67Zm20.07,24.75a3.69,3.69,0,1,1,3.69,3.69A3.69,3.69,0,0,1,591.11,295.42Zm-92.86,40.77a3.68,3.68,0,0,1,1-2.54l.06-.06.07-.07a3.69,3.69,0,1,1,2.54,6.36A3.69,3.69,0,0,1,498.25,336.19ZM502.74,309a3.69,3.69,0,1,1,3.69,3.69A3.69,3.69,0,0,1,502.74,309ZM440,315.19a3.69,3.69,0,1,1-3.68-3.68A3.69,3.69,0,0,1,440,315.19Zm-29.53,2.36a3.67,3.67,0,0,1,1-2.54l.14-.13a3.65,3.65,0,0,1,2.53-1,3.69,3.69,0,1,1-3.68,3.68Zm-17.18-55.38a3.69,3.69,0,1,1,1.08,2.6A3.63,3.63,0,0,1,393.31,262.17Zm33.9,39.17a3.7,3.7,0,1,1-1.09-2.61A3.69,3.69,0,0,1,427.21,301.34Zm39.17-9.5a3.63,3.63,0,0,1,1-2.53l.14-.14a3.65,3.65,0,0,1,2.53-1,3.69,3.69,0,1,1-3.68,3.68Zm67.35-3.51A3.69,3.69,0,1,1,530,292,3.69,3.69,0,0,1,533.73,288.33Zm8-11.59a3.69,3.69,0,1,1,3.68,3.69A3.68,3.68,0,0,1,541.74,276.74Zm-34-73.24a3.69,3.69,0,1,1-3.69-3.68A3.69,3.69,0,0,1,507.75,203.5Zm-11.28,12.61a3.69,3.69,0,1,1-3.69-3.68A3.69,3.69,0,0,1,496.47,216.11ZM440.75,216a3.69,3.69,0,1,1-3.69-3.69A3.69,3.69,0,0,1,440.75,216Zm-11.91,24a3.69,3.69,0,1,1-3.68-3.68A3.69,3.69,0,0,1,428.84,239.94Zm43.89-16.12A3.69,3.69,0,1,1,469,227.5,3.68,3.68,0,0,1,472.73,223.82Zm65-20.35a3.7,3.7,0,1,1-1.1-2.62l0,0A3.66,3.66,0,0,1,537.78,203.47Zm-3.63,19.21a3.7,3.7,0,1,1-1.1-2.62l0,0A3.66,3.66,0,0,1,534.15,222.68Zm31.1-60.37a3.69,3.69,0,1,1-3.68,3.69A3.69,3.69,0,0,1,565.25,162.31ZM614.66,59.78a3.69,3.69,0,1,1,1.14,2.67l-.06-.07-.06-.06A3.68,3.68,0,0,1,614.66,59.78ZM459.06,126a3.69,3.69,0,1,1,3.69-3.69A3.69,3.69,0,0,1,459.06,126ZM441,143.28a3.69,3.69,0,1,1-3.69-3.69A3.69,3.69,0,0,1,441,143.28Zm-17.51-42.72a3.69,3.69,0,1,1,3.69-3.68A3.68,3.68,0,0,1,423.44,100.56Zm-44.13,32.5a3.69,3.69,0,1,1-3.69-3.69A3.69,3.69,0,0,1,379.31,133.06Zm33.54,21.46a3.69,3.69,0,1,1-3.68-3.68A3.69,3.69,0,0,1,412.85,154.52Zm-20.66,65.55a3.69,3.69,0,1,1-1.08-2.61A3.69,3.69,0,0,1,392.19,220.07Zm-51.6-8.72a3.69,3.69,0,1,1-3.69-3.69A3.69,3.69,0,0,1,340.59,211.35Zm13.12,32.52a3.69,3.69,0,1,1-3.69-3.68A3.69,3.69,0,0,1,353.71,243.87Zm-52-28.57a3.66,3.66,0,0,1,1-2.54l.13-.14a3.69,3.69,0,1,1-1.15,2.68Zm-14.41-21.79a3.69,3.69,0,1,1-3.68-3.68A3.69,3.69,0,0,1,287.31,193.51Zm-33.25,4.82a3.69,3.69,0,1,1-3.69-3.69A3.69,3.69,0,0,1,254.06,198.33Zm18.76,6.34a3.69,3.69,0,1,1-3.68,3.69A3.69,3.69,0,0,1,272.82,204.67Zm50.73,20.14a3.69,3.69,0,1,1-3.68,3.69A3.69,3.69,0,0,1,323.55,224.81Zm11.14,12.13a3.69,3.69,0,1,1-3.69,3.68A3.68,3.68,0,0,1,334.69,236.94Zm9.8-11.12a3.69,3.69,0,1,1,3.68,3.69A3.69,3.69,0,0,1,344.49,225.82ZM343.63,194a3.69,3.69,0,1,1-3.69,3.69A3.69,3.69,0,0,1,343.63,194Zm18.45,11.71a3.65,3.65,0,0,1,1-2.53l.14-.14a3.63,3.63,0,0,1,2.53-1,3.69,3.69,0,1,1-3.68,3.68Zm13-18.65a3.69,3.69,0,1,1-3.68-3.68,3.69,3.69,0,0,1,3.68,3.68Zm19.75-8.71a3.69,3.69,0,1,1,3.69,3.68A3.69,3.69,0,0,1,394.81,178.38Zm-11.74-74.63a3.69,3.69,0,1,1,3.69,3.68A3.69,3.69,0,0,1,383.07,103.75Zm29-39a3.69,3.69,0,1,1,3.68,3.69,3.63,3.63,0,0,1-2.54-1l-.06-.06-.06-.06A3.64,3.64,0,0,1,412,64.74Zm-105.45,48a3.69,3.69,0,1,1-3.69-3.69A3.69,3.69,0,0,1,306.59,112.75Zm-8.38,25.63a3.69,3.69,0,1,1-3.69-3.68A3.69,3.69,0,0,1,298.21,138.38Zm-4.38,20.2a3.69,3.69,0,1,1-3.68-3.68A3.69,3.69,0,0,1,293.83,158.58Zm67.94-95.11a3.7,3.7,0,1,1,1.15,2.67l-.07-.06-.06-.06A3.69,3.69,0,0,1,361.77,63.47Zm-10-13.06A3.69,3.69,0,1,1,353,53.08l-.06-.06-.07-.06A3.69,3.69,0,0,1,351.81,50.41ZM312.42,72.17a3.67,3.67,0,1,1,1.14,2.67l-.06-.07-.06-.06A3.68,3.68,0,0,1,312.42,72.17Zm20.31-4.68a3.63,3.63,0,0,1,1.07-2.59l0,0a3.69,3.69,0,1,1-1.09,2.62Zm61.8-26.55a3.69,3.69,0,1,1-3.68-3.68A3.69,3.69,0,0,1,394.53,40.94ZM543.2,30.1a3.69,3.69,0,1,1-3.68-3.68A3.69,3.69,0,0,1,543.2,30.1Zm40.56,1.25a3.69,3.69,0,1,1-3.68-3.69A3.68,3.68,0,0,1,583.76,31.35ZM513.49,62.26a3.69,3.69,0,1,1-3.69-3.68A3.69,3.69,0,0,1,513.49,62.26ZM492.92,129a3.69,3.69,0,1,1-3.69-3.68,3.65,3.65,0,0,1,2.59,1.06l0,0A3.68,3.68,0,0,1,492.92,129Zm33.14-2.7a3.69,3.69,0,1,1,3.69,3.68A3.69,3.69,0,0,1,526.06,126.3Zm22.6-41.24a3.69,3.69,0,1,1-1.08-2.6A3.69,3.69,0,0,1,548.66,85.06Zm78.07-3.34A3.69,3.69,0,1,1,630.41,78,3.69,3.69,0,0,1,626.73,81.72Zm13,36.34a3.69,3.69,0,1,1-3.69,3.69A3.69,3.69,0,0,1,639.75,118.06Zm10.67-12.79A3.69,3.69,0,1,1,654.1,109,3.69,3.69,0,0,1,650.42,105.27Zm43.91,18.36a3.69,3.69,0,1,1-3.69,3.69A3.69,3.69,0,0,1,694.33,123.63ZM720.85,142a3.69,3.69,0,1,1-3.69,3.69A3.69,3.69,0,0,1,720.85,142ZM694.56,82.66A3.69,3.69,0,1,1,690.87,79,3.67,3.67,0,0,1,694.56,82.66ZM738.27,152a3.69,3.69,0,1,1-3.69-3.69A3.69,3.69,0,0,1,738.27,152Zm.79,27a3.69,3.69,0,1,1,3.69-3.69A3.69,3.69,0,0,1,739.06,179Zm-1.51,20.9a3.69,3.69,0,1,1,3.68,3.68A3.69,3.69,0,0,1,737.55,199.87Zm-8.89-.4a3.69,3.69,0,1,1-3.68-3.69A3.69,3.69,0,0,1,728.66,199.47Zm-11.73,36.75a3.69,3.69,0,1,1,3.68-3.69A3.69,3.69,0,0,1,716.93,236.22Zm18.56,38.51a3.67,3.67,0,0,1,1-2.54l.07-.06.06-.07a3.69,3.69,0,1,1-1.14,2.67ZM739.56,256a3.69,3.69,0,1,1,3.69,3.69A3.69,3.69,0,0,1,739.56,256Zm-12-13.13a3.67,3.67,0,1,1,1.47,3l-.74-.74A3.69,3.69,0,0,1,727.55,242.85Zm14.82,61.71a3.62,3.62,0,0,1,1-2.54l.06-.07.06-.06a3.69,3.69,0,1,1-1.14,2.67Z"/><path class="cls-2" d="M22.83,214.59V182.82H36.88v31.77Zm0,47.65V246.35H36.88v15.89Zm56.23-95.3v15.88H36.88V166.94Zm0,63.53H36.88V214.59H79.06ZM36.88,278.12V262.24H79.06v15.88Zm56.23-79.41h-14V182.82h14Zm-14,63.53V230.47h14v31.77Z"/><path class="cls-2" d="M191.51,198.71v79.41h-14V246.35H135.28v31.77h-14V198.71h14v31.76h42.18V198.71Zm-42.17,0H135.28V182.82h14.06Zm14.06-31.77v15.88H149.34V166.94Zm0,31.77V182.82h14.06v15.89Z"/><path class="cls-2" d="M275.85,230.47H233.68v31.77h56.23v15.88H219.63V166.94h70.28v15.88H233.68v31.77h42.17Z"/><path class="cls-2" d="M318,262.24V182.82h14.05v79.42Zm56.23-95.3v15.88H332.08V166.94Zm0,95.3v15.88H332.08V262.24Zm14.05-63.53H374.26V182.82h14.05Zm0,47.64v15.89H374.26V246.35Z"/><path class="cls-2" d="M430.48,278.12H416.43V166.94h14.05v47.65h14.06v15.88H430.48Zm14.06-79.41H458.6v15.88H444.54Zm0,31.76H458.6v15.88H444.54Zm28.12-31.76H458.6V182.82h14.06ZM458.6,246.35h14.06v15.89H458.6Zm28.11-63.53h-14V166.94h14Zm-14,79.42h14v15.88h-14Z"/><path class="cls-2" d="M585.11,198.71v79.41H571.06V246.35H528.88v31.77h-14V198.71h14v31.76h42.18V198.71Zm-42.17,0H528.88V182.82h14.06ZM557,166.94v15.88H542.94V166.94Zm0,31.77V182.82h14.06v15.89Z"/><path class="cls-2" d="M683.51,166.94v15.88H655.4v95.3H641.34v-95.3H613.23V166.94Z"/><path class="cls-2" d="M767.86,230.47H725.68v47.65h-14V166.94h14v47.65h42.18V166.94h14V278.12h-14Z"/><path class="cls-2" d="M810,182.82h14.05v79.42H810Zm56.23-15.88v15.88H824.08V166.94Zm0,95.3v15.88H824.08V262.24Zm14,0h-14V182.82h14Z"/><path class="cls-2" d="M908.43,278.12V166.94h14.05v31.77h14.06v15.88H922.48v63.53Zm28.11-47.65V214.59H950.6v15.88Zm28.12-63.53h14.05V278.12H964.66V246.35H950.6V230.47h14.06Z"/></svg>